name analog
datacolumns 19
datarows 37
range 0.1855 0.20350000000000001
endheader
time	ground_force_vx	ground_force_vy	ground_force_vz	ground_force_px	ground_force_py	ground_force_pz	l_ground_force_vx	l_ground_force_vy	l_ground_force_vz	l_ground_force_px	l_ground_force_py	l_ground_force_pz	ground_torque_x	ground_torque_y	ground_torque_z	l_ground_torque_x	l_ground_torque_y	l_ground_torque_z
0.1855	-0.0	-0.0	-0.0	12.582131385803224	52.05560302734375	-355.3263244628906	2.759915351867676	-55.21745300292969	-337.2545166015625	-0.0	-0.0	-0.0	-0.0	-0.0	-0.0	63767.30859375	-19298.953125	880.0615844726562
0.186	-0.0	-0.0	-0.0	12.750014305114746	50.97904968261719	-358.3934631347656	1.7809919118881226	-55.5644645690918	-339.3086853027344	-0.0	-0.0	-0.0	-0.0	-0.0	-0.0	64110.55078125	-19238.193359375	612.364013671875
0.1865	-0.0	-0.0	-0.0	12.083291053771973	50.55142593383789	-355.3133544921875	0.1912935674190521	-55.724082946777344	-339.0398864746094	-0.0	-0.0	-0.0	-0.0	-0.0	-0.0	64261.4296875	-18646.134765625	372.7742919921875
0.187	-0.0	-0.0	-0.0	12.117794036865234	50.63348007202149	-356.7557678222656	-0.6138720512390137	-55.11273193359375	-340.10162353515625	-0.0	-0.0	-0.0	-0.0	-0.0	-0.0	64672.11328125	-18686.001953125	222.87710571289065
0.1875	-0.0	-0.0	-0.0	11.927687644958496	50.62985229492188	-358.462646484375	-0.8238158822059631	-54.7630615234375	-342.8954772949219	-0.0	-0.0	-0.0	-0.0	-0.0	-0.0	64984.55859375	-18399.0546875	75.71066284179688
0.188	-0.0	-0.0	-0.0	10.747862815856934	49.9866828918457	-358.81549072265625	-1.5893641710281372	-54.93238830566406	-343.9289855957031	-0.0	-0.0	-0.0	-0.0	-0.0	-0.0	65258.4140625	-18036.353515625	-125.04363250732422
0.1885	-0.0	-0.0	-0.0	10.887648582458496	49.390132904052734	-358.1558532714844	-1.8629264831542969	-54.83639526367188	-345.6900634765625	-0.0	-0.0	-0.0	-0.0	-0.0	-0.0	65262.51171875	-18005.412109375	-215.26036071777344
0.189	-0.0	-0.0	-0.0	10.165952682495115	49.02172088623047	-360.8698120117188	-2.3103678226470947	-54.85551071166992	-347.3905944824219	-0.0	-0.0	-0.0	-0.0	-0.0	-0.0	65471.390625	-17842.765625	-193.56065368652344
0.1895	-0.0	-0.0	-0.0	9.099472045898438	48.72957611083984	-362.7158203125	-2.2058565616607666	-54.73967742919922	-346.73883056640625	-0.0	-0.0	-0.0	-0.0	-0.0	-0.0	65455.71875	-17599.310546875	-192.1290435791016
0.19	-0.0	-0.0	-0.0	9.430965423583984	48.31290054321289	-366.1138000488281	-2.9958384037017822	-54.39401626586914	-347.77099609375	-0.0	-0.0	-0.0	-0.0	-0.0	-0.0	65254.2734375	-17198.619140625	-405.6578063964844
0.1905	-0.0	-0.0	-0.0	8.74693775177002	47.88885116577149	-366.6178283691406	-3.274005174636841	-53.960426330566406	-347.0730285644531	-0.0	-0.0	-0.0	-0.0	-0.0	-0.0	65670.5078125	-17470.064453125	-579.651123046875
0.191	-0.0	-0.0	-0.0	8.131330490112305	47.813385009765625	-368.4362487792969	-3.552661895751953	-53.86780548095703	-347.73834228515625	-0.0	-0.0	-0.0	-0.0	-0.0	-0.0	65464.41015625	-16930.994140625	-668.8179931640625
0.1915	-0.0	-0.0	-0.0	7.520511150360107	48.90132141113281	-370.16796875	-3.9075846672058105	-53.88051986694336	-348.802490234375	-0.0	-0.0	-0.0	-0.0	-0.0	-0.0	65425.2109375	-16875.42578125	-814.5113525390625
0.192	-0.0	-0.0	-0.0	7.145951747894287	48.56241989135742	-371.50921630859375	-4.249330043792725	-53.79665756225586	-348.802490234375	-0.0	-0.0	-0.0	-0.0	-0.0	-0.0	65671.75	-16562.466796875	-872.5359497070312
0.1925	-0.0	-0.0	-0.0	6.676837921142578	48.49158477783203	-373.57232666015625	-4.599497318267822	-53.60232925415039	-349.9559020996094	-0.0	-0.0	-0.0	-0.0	-0.0	-0.0	66041.1640625	-16517.7265625	-934.970703125
0.193	-0.0	-0.0	-0.0	5.479683876037598	48.65574645996094	-374.8175659179688	-4.612960815429688	-53.85803985595703	-352.2221069335937	-0.0	-0.0	-0.0	-0.0	-0.0	-0.0	65878.8984375	-16398.66015625	-1109.9481201171875
0.1935	-0.0	-0.0	-0.0	4.638946533203125	48.58088302612305	-375.8787536621094	-4.346828460693359	-53.4531478881836	-352.9190979003906	-0.0	-0.0	-0.0	-0.0	-0.0	-0.0	66128.0	-16491.017578125	-1025.245849609375
0.194	-0.0	-0.0	-0.0	3.8311421871185294	48.81893539428711	-376.1560974121094	-4.790382385253906	-53.53711700439453	-354.3328857421875	-0.0	-0.0	-0.0	-0.0	-0.0	-0.0	66269.3515625	-16233.5341796875	-1203.56689453125
0.1945	-0.0	-0.0	-0.0	3.295797824859619	48.58105850219727	-375.4105224609375	-4.622613906860352	-53.950138092041016	-354.8520202636719	-0.0	-0.0	-0.0	-0.0	-0.0	-0.0	66858.1640625	-16062.322265625	-1287.70263671875
0.195	-0.0	-0.0	-0.0	3.201427936553955	48.94780731201172	-375.4302978515625	-4.795292854309082	-53.63571166992188	-357.2401123046875	-0.0	-0.0	-0.0	-0.0	-0.0	-0.0	66875.046875	-16113.611328125	-1496.951904296875
0.1955	-0.0	-0.0	-0.0	2.5767931938171387	48.92744445800781	-374.2890930175781	-5.347599029541016	-54.05784225463867	-359.27703857421875	-0.0	-0.0	-0.0	-0.0	-0.0	-0.0	67086.9921875	-15962.572265625	-1509.07958984375
0.196	-0.0	-0.0	-0.0	2.4874143600463867	48.37686920166016	-375.6797180175781	-5.426580429077148	-53.96455383300781	-359.9154357910156	-0.0	-0.0	-0.0	-0.0	-0.0	-0.0	67404.8828125	-15973.322265625	-1617.7279052734375
0.1965	-0.0	-0.0	-0.0	1.921434044837952	47.80054473876953	-373.7488403320313	-5.933285713195801	-54.20378875732422	-360.9617309570313	-0.0	-0.0	-0.0	-0.0	-0.0	-0.0	67492.5	-15829.947265625	-1824.0374755859373
0.197	-0.0	-0.0	-0.0	2.2031655311584477	47.95756912231445	-372.9794616699219	-5.7556986808776855	-54.390472412109375	-359.7708435058594	-0.0	-0.0	-0.0	-0.0	-0.0	-0.0	67381.7265625	-15536.5107421875	-1771.598876953125
0.1975	-0.0	-0.0	-0.0	2.3811655044555664	47.579139709472656	-373.3765869140625	-5.865581512451172	-54.8265266418457	-359.40301513671875	-0.0	-0.0	-0.0	-0.0	-0.0	-0.0	67587.9921875	-15528.8505859375	-1918.3800048828125
0.198	-0.0	-0.0	-0.0	1.979379415512085	47.13883209228516	-375.6508483886719	-6.470473289489746	-55.04058456420898	-359.9540405273437	-0.0	-0.0	-0.0	-0.0	-0.0	-0.0	66906.2578125	-15169.1015625	-2016.9346923828125
0.1985	-0.0	-0.0	-0.0	2.469512224197388	46.9547119140625	-372.8905944824219	-6.680844783782959	-55.19009017944336	-359.2987060546875	-0.0	-0.0	-0.0	-0.0	-0.0	-0.0	67083.984375	-15006.568359375	-2102.618408203125
0.199	-0.0	-0.0	-0.0	2.014476537704468	46.6697998046875	-371.9441223144531	-7.457296848297119	-55.526512145996094	-356.57183837890625	-0.0	-0.0	-0.0	-0.0	-0.0	-0.0	66890.171875	-14573.9833984375	-2340.6806640625
0.1995	-0.0	-0.0	-0.0	2.4920544624328613	45.634765625	-369.31060791015625	-7.983970642089844	-55.27808380126953	-355.7855224609375	-0.0	-0.0	-0.0	-0.0	-0.0	-0.0	66047.0625	-14359.462890625	-2457.85791015625
0.2	-0.0	-0.0	-0.0	1.7605140209197998	45.28416442871094	-368.2259826660156	-8.60494613647461	-54.648216247558594	-353.01495361328125	-0.0	-0.0	-0.0	-0.0	-0.0	-0.0	65667.6484375	-14216.0498046875	-2739.472900390625
0.2005	-0.0	-0.0	-0.0	1.3140841722488403	44.91571044921875	-366.2476196289063	-8.433371543884277	-54.406158447265625	-349.94195556640625	-0.0	-0.0	-0.0	-0.0	-0.0	-0.0	65106.68359375	-13978.2431640625	-2669.69287109375
0.201	-0.0	-0.0	-0.0	1.8673211336135864	44.99257278442383	-364.9073486328125	-8.78829574584961	-53.811519622802734	-348.7558288574219	-0.0	-0.0	-0.0	-0.0	-0.0	-0.0	64571.16796875	-13509.4462890625	-2919.065185546875
0.2015	-0.0	-0.0	-0.0	0.8214460611343384	44.94025802612305	-363.8732604980469	-8.923718452453613	-53.69359970092773	-346.6365966796875	-0.0	-0.0	-0.0	-0.0	-0.0	-0.0	63946.859375	-13331.4599609375	-2946.673095703125
0.202	-0.0	-0.0	-0.0	0.5227050185203552	44.2852668762207	-361.65625	-8.877184867858887	-53.50470352172852	-343.4209899902344	-0.0	-0.0	-0.0	-0.0	-0.0	-0.0	63451.3671875	-13043.0322265625	-2954.6015625
0.2025	-0.0	-0.0	-0.0	0.0828520357608795	44.89631271362305	-362.6402893066406	-8.827781677246094	-53.00532913208008	-341.7464294433594	-0.0	-0.0	-0.0	-0.0	-0.0	-0.0	63042.375	-12958.4248046875	-2944.07177734375
0.203	-0.0	-0.0	-0.0	-0.9555449485778807	44.74989700317383	-361.32861328125	-9.213383674621582	-52.11603546142578	-337.2557983398437	-0.0	-0.0	-0.0	-0.0	-0.0	-0.0	62466.40625	-12590.015625	-2931.058349609375
0.20350000000000001	-0.0	-0.0	-0.0	-1.0966174602508545	45.18911743164063	-360.3468322753906	-8.966137886047363	-52.00251388549805	-334.3380126953125	-0.0	-0.0	-0.0	-0.0	-0.0	-0.0	61878.01171875	-12793.2255859375	-3009.284423828125
